<svg xmlns="http://www.w3.org/2000/svg" viewBox="0 0 100 100"><rect width="100" height="100" rx="12" fill="#fff1f2"/><ellipse cx="32" cy="40" rx="22" ry="16" fill="#ce93d8" transform="rotate(-20 32 40)"/><ellipse cx="68" cy="40" rx="22" ry="16" fill="#ce93d8" transform="rotate(20 68 40)"/><ellipse cx="34" cy="60" rx="14" ry="10" fill="#ba68c8" transform="rotate(15 34 60)"/><ellipse cx="66" cy="60" rx="14" ry="10" fill="#ba68c8" transform="rotate(-15 66 60)"/><ellipse cx="32" cy="40" rx="14" ry="10" fill="#e1bee7" opacity="0.5" transform="rotate(-20 32 40)"/><ellipse cx="68" cy="40" rx="14" ry="10" fill="#e1bee7" opacity="0.5" transform="rotate(20 68 40)"/><path d="M50 35 Q48 50 46 65" stroke="#5d4037" stroke-width="2.5" fill="none" stroke-linecap="round"/><path d="M50 35 Q52 50 54 65" stroke="#5d4037" stroke-width="2.5" fill="none" stroke-linecap="round"/><path d="M50 30 Q44 22 38 18" stroke="#5d4037" stroke-width="2" fill="none" stroke-linecap="round"/><path d="M50 30 Q56 22 62 18" stroke="#5d4037" stroke-width="2" fill="none" stroke-linecap="round"/></svg>