<svg xmlns="http://www.w3.org/2000/svg" viewBox="0 0 100 100"><rect width="100" height="100" rx="12" fill="#fff1f2"/><circle cx="50" cy="58" r="26" fill="#ffb74d"/><polygon points="26,40 32,20 42,38" fill="#ffb74d"/><polygon points="74,40 68,20 58,38" fill="#ffb74d"/><polygon points="28,40 33,25 40,39" fill="#f48fb1"/><polygon points="72,40 67,25 60,39" fill="#f48fb1"/><circle cx="40" cy="56" r="7" fill="white"/><circle cx="60" cy="56" r="7" fill="white"/><ellipse cx="40" cy="56" rx="3" ry="5" fill="#1a237e"/><ellipse cx="60" cy="56" rx="3" ry="5" fill="#1a237e"/><circle cx="41" cy="54" r="1.5" fill="white"/><circle cx="61" cy="54" r="1.5" fill="white"/><path d="M50 62 Q46 66 42 64" stroke="#e91e63" stroke-width="2" fill="none" stroke-linecap="round"/><path d="M50 62 Q54 66 58 64" stroke="#e91e63" stroke-width="2" fill="none" stroke-linecap="round"/><ellipse cx="50" cy="61" rx="4" ry="3" fill="#f06292"/><line x1="30" y1="60" x2="15" y2="56" stroke="#795548" stroke-width="1.5"/><line x1="30" y1="63" x2="15" y2="63" stroke="#795548" stroke-width="1.5"/><line x1="30" y1="66" x2="15" y2="70" stroke="#795548" stroke-width="1.5"/><line x1="70" y1="60" x2="85" y2="56" stroke="#795548" stroke-width="1.5"/><line x1="70" y1="63" x2="85" y2="63" stroke="#795548" stroke-width="1.5"/><line x1="70" y1="66" x2="85" y2="70" stroke="#795548" stroke-width="1.5"/></svg>