<svg xmlns="http://www.w3.org/2000/svg" viewBox="0 0 100 100"><rect width="100" height="100" rx="12" fill="#fff1f2"/><rect x="18" y="55" width="64" height="32" rx="5" fill="#f48fb1"/><ellipse cx="50" cy="55" rx="32" ry="8" fill="#f8bbd0"/><path d="M18 63 Q30 58 42 63 Q54 68 66 63 Q78 58 82 63 L82 67 Q70 72 58 67 Q46 62 34 67 Q22 72 18 67 Z" fill="white" opacity="0.6"/><rect x="38" y="36" width="5" height="18" rx="2" fill="#ef9a9a"/><rect x="57" y="38" width="5" height="16" rx="2" fill="#80cbc4"/><ellipse cx="40" cy="35" rx="4" ry="6" fill="#ffca28" opacity="0.8"/><ellipse cx="59" cy="37" rx="4" ry="6" fill="#ff8a65" opacity="0.8"/><ellipse cx="40" cy="33" rx="2" ry="3" fill="#ff8f00"/><ellipse cx="59" cy="35" rx="2" ry="3" fill="#e64a19"/></svg>