<svg xmlns="http://www.w3.org/2000/svg" viewBox="0 0 100 100"><rect width="100" height="100" rx="12" fill="#fff1f2"/><ellipse cx="50" cy="44" rx="28" ry="32" fill="#ef5350"/><path d="M22 44 Q22 16 50 12 Q78 16 78 44 Q78 58 50 76 Q22 58 22 44" fill="#ef5350"/><path d="M36 12 L36 76" stroke="white" stroke-width="2" opacity="0.3"/><path d="M50 10 L50 76" stroke="white" stroke-width="2" opacity="0.3"/><path d="M64 12 L64 76" stroke="white" stroke-width="2" opacity="0.3"/><path d="M22 38 Q50 44 78 38" stroke="white" stroke-width="2" opacity="0.3" fill="none"/><path d="M22 56 Q50 62 78 56" stroke="white" stroke-width="2" opacity="0.3" fill="none"/><path d="M38 76 L38 84 L62 84 L62 76" stroke="#795548" stroke-width="2" fill="none"/><rect x="38" y="82" width="24" height="10" rx="3" fill="#795548"/></svg>