<svg xmlns="http://www.w3.org/2000/svg" viewBox="0 0 100 100"><rect width="100" height="100" rx="12" fill="#fff1f2"/><line x1="50" y1="50" x2="86.0" y2="50.0" stroke="#81d4fa" stroke-width="4" stroke-linecap="round"/><line x1="67.6" y1="59.6" x2="74.6" y2="63.4" stroke="#81d4fa" stroke-width="2.5" stroke-linecap="round"/><line x1="67.6" y1="40.4" x2="74.6" y2="36.6" stroke="#81d4fa" stroke-width="2.5" stroke-linecap="round"/><line x1="50" y1="50" x2="68.0" y2="81.2" stroke="#81d4fa" stroke-width="4" stroke-linecap="round"/><line x1="50.5" y1="70.0" x2="50.7" y2="78.0" stroke="#81d4fa" stroke-width="2.5" stroke-linecap="round"/><line x1="67.1" y1="60.4" x2="73.9" y2="64.6" stroke="#81d4fa" stroke-width="2.5" stroke-linecap="round"/><line x1="50" y1="50" x2="32.0" y2="81.2" stroke="#81d4fa" stroke-width="4" stroke-linecap="round"/><line x1="32.9" y1="60.4" x2="26.1" y2="64.6" stroke="#81d4fa" stroke-width="2.5" stroke-linecap="round"/><line x1="49.5" y1="70.0" x2="49.3" y2="78.0" stroke="#81d4fa" stroke-width="2.5" stroke-linecap="round"/><line x1="50" y1="50" x2="14.0" y2="50.0" stroke="#81d4fa" stroke-width="4" stroke-linecap="round"/><line x1="32.4" y1="40.4" x2="25.4" y2="36.6" stroke="#81d4fa" stroke-width="2.5" stroke-linecap="round"/><line x1="32.4" y1="59.6" x2="25.4" y2="63.4" stroke="#81d4fa" stroke-width="2.5" stroke-linecap="round"/><line x1="50" y1="50" x2="32.0" y2="18.8" stroke="#81d4fa" stroke-width="4" stroke-linecap="round"/><line x1="49.5" y1="30.0" x2="49.3" y2="22.0" stroke="#81d4fa" stroke-width="2.5" stroke-linecap="round"/><line x1="32.9" y1="39.6" x2="26.1" y2="35.4" stroke="#81d4fa" stroke-width="2.5" stroke-linecap="round"/><line x1="50" y1="50" x2="68.0" y2="18.8" stroke="#81d4fa" stroke-width="4" stroke-linecap="round"/><line x1="67.1" y1="39.6" x2="73.9" y2="35.4" stroke="#81d4fa" stroke-width="2.5" stroke-linecap="round"/><line x1="50.5" y1="30.0" x2="50.7" y2="22.0" stroke="#81d4fa" stroke-width="2.5" stroke-linecap="round"/><circle cx="50" cy="50" r="6" fill="#4fc3f7"/></svg>