<svg xmlns="http://www.w3.org/2000/svg" viewBox="0 0 100 100"><rect width="100" height="100" rx="12" fill="#fff1f2"/><path d="M50 85 Q25 60 30 30 Q35 10 50 15 Q65 10 70 30 Q75 60 50 85" fill="#ce93d8"/><path d="M50 85 Q25 60 30 30 Q35 10 50 15" fill="#e1bee7"/><line x1="50" y1="85" x2="50" y2="15" stroke="#9c27b0" stroke-width="2"/><path d="M50 70 Q38 62 34 52" stroke="#ba68c8" stroke-width="1.5" fill="none"/><path d="M50 60 Q38 52 36 42" stroke="#ba68c8" stroke-width="1.5" fill="none"/><path d="M50 50 Q40 42 38 32" stroke="#ba68c8" stroke-width="1.5" fill="none"/><path d="M50 70 Q62 62 66 52" stroke="#9c27b0" stroke-width="1.5" fill="none"/><path d="M50 60 Q62 52 64 42" stroke="#9c27b0" stroke-width="1.5" fill="none"/><path d="M50 50 Q60 42 62 32" stroke="#9c27b0" stroke-width="1.5" fill="none"/></svg>