<svg xmlns="http://www.w3.org/2000/svg" viewBox="0 0 100 100"><rect width="100" height="100" rx="12" fill="#fff1f2"/><line x1="50" y1="50" x2="80.0" y2="50.0" stroke="#ef5350" stroke-width="3" stroke-linecap="round"/><circle cx="80.0" cy="50.0" r="3" fill="#ef5350"/><line x1="50" y1="50" x2="76.0" y2="65.0" stroke="#ff9800" stroke-width="3" stroke-linecap="round"/><circle cx="76.0" cy="65.0" r="3" fill="#ff9800"/><line x1="50" y1="50" x2="65.0" y2="76.0" stroke="#fdd835" stroke-width="3" stroke-linecap="round"/><circle cx="65.0" cy="76.0" r="3" fill="#fdd835"/><line x1="50" y1="50" x2="50.0" y2="80.0" stroke="#66bb6a" stroke-width="3" stroke-linecap="round"/><circle cx="50.0" cy="80.0" r="3" fill="#66bb6a"/><line x1="50" y1="50" x2="35.0" y2="76.0" stroke="#42a5f5" stroke-width="3" stroke-linecap="round"/><circle cx="35.0" cy="76.0" r="3" fill="#42a5f5"/><line x1="50" y1="50" x2="24.0" y2="65.0" stroke="#9c27b0" stroke-width="3" stroke-linecap="round"/><circle cx="24.0" cy="65.0" r="3" fill="#9c27b0"/><line x1="50" y1="50" x2="20.0" y2="50.0" stroke="#e91e63" stroke-width="3" stroke-linecap="round"/><circle cx="20.0" cy="50.0" r="3" fill="#e91e63"/><line x1="50" y1="50" x2="24.0" y2="35.0" stroke="#00bcd4" stroke-width="3" stroke-linecap="round"/><circle cx="24.0" cy="35.0" r="3" fill="#00bcd4"/><line x1="50" y1="50" x2="35.0" y2="24.0" stroke="#ff5722" stroke-width="3" stroke-linecap="round"/><circle cx="35.0" cy="24.0" r="3" fill="#ff5722"/><line x1="50" y1="50" x2="50.0" y2="20.0" stroke="#8bc34a" stroke-width="3" stroke-linecap="round"/><circle cx="50.0" cy="20.0" r="3" fill="#8bc34a"/><line x1="50" y1="50" x2="65.0" y2="24.0" stroke="#03a9f4" stroke-width="3" stroke-linecap="round"/><circle cx="65.0" cy="24.0" r="3" fill="#03a9f4"/><line x1="50" y1="50" x2="76.0" y2="35.0" stroke="#673ab7" stroke-width="3" stroke-linecap="round"/><circle cx="76.0" cy="35.0" r="3" fill="#673ab7"/><circle cx="90.6" cy="60.9" r="2.5" fill="#ffb300"/><circle cx="71.0" cy="86.4" r="2.5" fill="#e91e63"/><circle cx="39.1" cy="90.6" r="2.5" fill="#00acc1"/><circle cx="13.6" cy="71.0" r="2.5" fill="#7cb342"/><circle cx="9.4" cy="39.1" r="2.5" fill="#fb8c00"/><circle cx="29.0" cy="13.6" r="2.5" fill="#d81b60"/><circle cx="60.9" cy="9.4" r="2.5" fill="#0097a7"/><circle cx="86.4" cy="29.0" r="2.5" fill="#558b2f"/><circle cx="50" cy="50" r="5" fill="#fdd835"/></svg>